<svg width="35" height="27" viewBox="0 0 35 27" fill="none" xmlns="http://www.w3.org/2000/svg">
<path d="M0 0.00146484V26.2141H34.0764V0.00146484H0ZM2.62126 2.62273H31.4551V23.5928H26.9911C26.8889 23.4133 26.9348 23.1682 26.7854 23.0188C26.2912 22.5233 25.5874 22.2822 24.902 22.2822C24.2165 22.2822 23.514 22.5233 23.0173 23.0201C22.8692 23.1682 22.9151 23.4133 22.8128 23.5928H11.2636C11.1613 23.4133 11.2072 23.1682 11.0591 23.0188C10.5611 22.5233 9.85987 22.2822 9.17441 22.2822C8.48895 22.2822 7.78646 22.5233 7.28973 23.0201C7.14162 23.1682 7.1875 23.4133 7.08527 23.5928H2.62126V2.62273ZM11.7957 5.24399C8.91229 5.24399 6.55315 7.60312 6.55315 10.4865C6.55315 11.9452 7.17832 13.2611 8.15081 14.2139C7.2591 14.8164 6.52803 15.6275 6.02118 16.5768C5.51433 17.5261 5.24703 18.5848 5.24252 19.6609H7.86378C7.86378 18.6181 8.27803 17.618 9.01541 16.8807C9.75278 16.1433 10.7529 15.729 11.7957 15.729C12.8385 15.729 13.8386 16.1433 14.5759 16.8807C15.3133 17.618 15.7276 18.6181 15.7276 19.6609H18.3488C18.3443 18.5848 18.077 17.5261 17.5702 16.5768C17.0633 15.6275 16.3322 14.8164 15.4405 14.2139C16.413 13.2611 17.0382 11.9465 17.0382 10.4865C17.0382 7.60312 14.6791 5.24399 11.7957 5.24399ZM11.7957 7.86525C13.2596 7.86525 14.4169 9.02253 14.4169 10.4865C14.4169 11.9505 13.2596 13.1078 11.7957 13.1078C10.3317 13.1078 9.17441 11.9505 9.17441 10.4865C9.17441 9.02253 10.3317 7.86525 11.7957 7.86525ZM20.9701 9.17588V11.7971H28.8339V9.17588H20.9701ZM20.9701 14.4184V17.0397H28.8339V14.4184H20.9701Z" fill="#03A07A"/>
</svg>
