<svg width="30" height="28" viewBox="0 0 30 28" fill="none" xmlns="http://www.w3.org/2000/svg">
<path d="M29.6424 11.1478V24.3208C29.6424 25.9272 28.328 27.2416 26.7216 27.2416H3.35492C1.74846 27.2416 0.434082 25.9272 0.434082 24.3208V6.79577C0.434082 5.18931 1.74846 3.87493 3.35492 3.87493H18.1051C18.0175 4.34227 17.9591 4.83881 17.9591 5.33535C17.9591 7.49677 18.9084 9.40991 20.398 10.7535L15.0382 14.0979L3.35492 6.79577V9.7166L15.0382 17.0187L22.7785 12.1701C23.5671 12.4622 24.3849 12.6374 25.2612 12.6374C26.9114 12.6374 28.4157 12.0679 29.6424 11.1478ZM20.8799 5.33535C20.8799 7.75964 22.8369 9.7166 25.2612 9.7166C27.6855 9.7166 29.6424 7.75964 29.6424 5.33535C29.6424 2.91106 27.6855 0.954102 25.2612 0.954102C22.8369 0.954102 20.8799 2.91106 20.8799 5.33535Z" fill="#03A07A"/>
</svg>
