<svg width="35" height="36" viewBox="0 0 35 36" fill="none" xmlns="http://www.w3.org/2000/svg">
<path fill-rule="evenodd" clip-rule="evenodd" d="M23.4275 3.10341H10.6489C10.084 3.10341 9.5423 3.32779 9.14289 3.7272C8.74348 4.12661 8.5191 4.66833 8.5191 5.23318V18.0118C8.5191 18.2943 8.4069 18.5651 8.2072 18.7648C8.00749 18.9645 7.73664 19.0767 7.45421 19.0767C7.17178 19.0767 6.90093 18.9645 6.70122 18.7648C6.50152 18.5651 6.38932 18.2943 6.38932 18.0118V5.23318C6.38932 4.10348 6.8381 3.02005 7.63692 2.22123C8.43574 1.42241 9.51917 0.973633 10.6489 0.973633L23.4275 0.973633C24.5572 0.973633 25.6407 1.42241 26.4395 2.22123C27.2383 3.02005 27.6871 4.10348 27.6871 5.23318V18.0118C27.6871 18.2943 27.5749 18.5651 27.3752 18.7648C27.1755 18.9645 26.9046 19.0767 26.6222 19.0767C26.3398 19.0767 26.0689 18.9645 25.8692 18.7648C25.6695 18.5651 25.5573 18.2943 25.5573 18.0118V5.23318C25.5573 4.66833 25.3329 4.12661 24.9335 3.7272C24.5341 3.32779 23.9924 3.10341 23.4275 3.10341ZM25.5573 30.7905C25.5573 31.3553 25.3329 31.897 24.9335 32.2965C24.5341 32.6959 23.9924 32.9202 23.4275 32.9202H10.6489C10.084 32.9202 9.5423 32.6959 9.14289 32.2965C8.74348 31.897 8.5191 31.3553 8.5191 30.7905V26.5309C8.5191 26.2485 8.4069 25.9776 8.2072 25.7779C8.00749 25.5782 7.73664 25.466 7.45421 25.466C7.17178 25.466 6.90093 25.5782 6.70122 25.7779C6.50152 25.9776 6.38932 26.2485 6.38932 26.5309V30.7905C6.38932 31.9202 6.8381 33.0036 7.63692 33.8024C8.43574 34.6012 9.51917 35.05 10.6489 35.05H23.4275C24.5572 35.05 25.6407 34.6012 26.4395 33.8024C27.2383 33.0036 27.6871 31.9202 27.6871 30.7905V26.5309C27.6871 26.2485 27.5749 25.9776 27.3752 25.7779C27.1755 25.5782 26.9046 25.466 26.6222 25.466C26.3398 25.466 26.0689 25.5782 25.8692 25.7779C25.6695 25.9776 25.5573 26.2485 25.5573 26.5309V30.7905ZM3.6483 17.9139C3.90475 17.7955 4.10368 17.5802 4.20133 17.3152C4.29899 17.0501 4.28737 16.7572 4.16903 16.5008C4.11044 16.3738 4.02741 16.2596 3.92468 16.1647C3.82196 16.0698 3.70155 15.9961 3.57033 15.9477C3.30532 15.8501 3.01237 15.8617 2.75593 15.98C2.0169 16.3208 1.36306 16.7212 0.877467 17.194C0.391878 17.6753 0 18.3079 0 19.0767C0 20.2396 0.868948 21.0787 1.7528 21.6346C2.6899 22.2267 3.97416 22.7208 5.46926 23.1169C8.47224 23.9177 12.5614 24.4011 17.0382 24.4011C17.249 24.4011 17.4578 24.4012 17.6643 24.3969L15.2194 26.8419C15.1204 26.9409 15.0418 27.0584 14.9882 27.1878C14.9347 27.3171 14.9071 27.4558 14.9071 27.5958C14.9071 27.7358 14.9347 27.8745 14.9882 28.0038C15.0418 28.1332 15.1204 28.2507 15.2194 28.3498C15.4193 28.5497 15.6905 28.662 15.9733 28.662C16.1133 28.662 16.252 28.6345 16.3813 28.5809C16.5107 28.5273 16.6282 28.4488 16.7272 28.3498L20.9868 24.0902C21.086 23.9913 21.1646 23.8738 21.2183 23.7444C21.272 23.615 21.2996 23.4763 21.2996 23.3363C21.2996 23.1962 21.272 23.0575 21.2183 22.9281C21.1646 22.7988 21.086 22.6812 20.9868 22.5823L16.7272 18.3228C16.6282 18.2238 16.5107 18.1452 16.3813 18.0916C16.252 18.0381 16.1133 18.0105 15.9733 18.0105C15.8333 18.0105 15.6946 18.0381 15.5653 18.0916C15.4359 18.1452 15.3184 18.2238 15.2194 18.3228C15.1204 18.4218 15.0418 18.5393 14.9882 18.6687C14.9347 18.798 14.9071 18.9367 14.9071 19.0767C14.9071 19.2167 14.9347 19.3554 14.9882 19.4847C15.0418 19.6141 15.1204 19.7316 15.2194 19.8307L17.658 22.2671L17.0382 22.2714C12.6935 22.2714 8.79597 21.8007 6.01874 21.0595C4.62161 20.6868 3.56737 20.263 2.88797 19.8349C2.15533 19.3728 2.12977 19.0895 2.12977 19.0767C2.12977 19.0703 2.12977 18.9511 2.36831 18.7147C2.61323 18.4761 3.02854 18.1992 3.64617 17.9139H3.6483ZM31.3205 15.98C31.064 15.8617 30.7711 15.8501 30.5061 15.9477C30.2411 16.0454 30.0257 16.2443 29.9074 16.5008C29.789 16.7572 29.7774 17.0501 29.8751 17.3152C29.9727 17.5802 30.1716 17.7955 30.4281 17.9139C31.05 18.1992 31.4632 18.4761 31.7059 18.7168C31.9466 18.9511 31.9466 19.0703 31.9466 19.0767C31.9466 19.0831 31.9466 19.2152 31.6697 19.475C31.3886 19.7348 30.9201 20.0287 30.2279 20.3269C28.8542 20.9232 26.8288 21.4408 24.3433 21.79C24.0676 21.8339 23.8201 21.9844 23.6542 22.209C23.4882 22.4336 23.4172 22.7143 23.4563 22.9908C23.4954 23.2673 23.6415 23.5174 23.8632 23.6871C24.0849 23.8569 24.3644 23.9328 24.6415 23.8985C27.2228 23.5365 29.4548 22.9827 31.0734 22.2842C31.8827 21.9349 32.5919 21.5238 33.118 21.034C33.6419 20.5463 34.0764 19.8903 34.0764 19.0767C34.0764 18.3057 33.6845 17.6711 33.1989 17.1961C32.7133 16.7212 32.0595 16.3208 31.3205 15.98ZM15.9733 5.23318C15.6909 5.23318 15.42 5.34538 15.2203 5.54508C15.0206 5.74478 14.9084 6.01564 14.9084 6.29807C14.9084 6.58049 15.0206 6.85135 15.2203 7.05106C15.42 7.25076 15.6909 7.36296 15.9733 7.36296H18.1031C18.3855 7.36296 18.6564 7.25076 18.8561 7.05106C19.0558 6.85135 19.168 6.58049 19.168 6.29807C19.168 6.01564 19.0558 5.74478 18.8561 5.54508C18.6564 5.34538 18.3855 5.23318 18.1031 5.23318H15.9733Z" fill="#03A07A"/>
</svg>
